<svg width="512" height="512" viewBox="0 0 512 512" fill="none" xmlns="http://www.w3.org/2000/svg">
  <!-- Bowl -->
  <path d="M80 320C80 320 100 440 256 440C412 440 432 320 432 320H80Z" fill="#F8FAFC" stroke="#E2E8F0" stroke-width="8"/>
  <ellipse cx="256" cy="320" rx="176" ry="40" fill="#F1F5F9" stroke="#E2E8F0" stroke-width="4"/>
  
  <!-- Pear (Yellow/Orange) -->
  <path d="M160 300C160 240 140 200 170 160C200 120 230 140 230 200C230 260 210 320 160 320" fill="#FBBF24"/>
  <path d="M170 160C170 160 175 140 185 145" stroke="#78350F" stroke-width="4" stroke-linecap="round"/>
  <path d="M170 160C150 140 120 150 110 180" fill="#22C55E"/>

  <!-- Apple (Green) -->
  <circle cx="256" cy="260" r="60" fill="#4ADE80"/>
  <path d="M256 200C256 200 260 180 270 185" stroke="#78350F" stroke-width="4" stroke-linecap="round"/>
  <path d="M256 200C276 180 306 190 316 220" fill="#16A34A"/>

  <!-- Bananas (Yellow) -->
  <path d="M320 180C360 180 420 220 420 300C420 300 430 240 380 160C330 80 300 160 320 180Z" fill="#FDE047"/>
  <path d="M340 200C380 200 440 240 440 320C440 320 450 260 400 180C350 100 320 180 340 200Z" fill="#FACC15"/>

  <!-- Orange -->
  <circle cx="340" cy="290" r="50" fill="#FB923C"/>
  <circle cx="330" cy="275" r="2" fill="#EA580C"/>
  <circle cx="350" cy="285" r="2" fill="#EA580C"/>
  <circle cx="340" cy="300" r="2" fill="#EA580C"/>

  <!-- Kiwi -->
  <ellipse cx="280" cy="310" rx="40" ry="30" fill="#A16207"/>
</svg>
